<?xml version="1.0" encoding="UTF-8"?>
<svg width="28px" height="30px" viewBox="0 0 28 30" version="1.1" xmlns="http://www.w3.org/2000/svg" xmlns:xlink="http://www.w3.org/1999/xlink">
    <!-- Generator: Sketch 52.6 (67491) - http://www.bohemiancoding.com/sketch -->
    <title>Fill 1</title>
    <desc>Created with Sketch.</desc>
    <g id="Film-Event" stroke="none" stroke-width="1" fill="none" fill-rule="evenodd">
        <g id="Desktop" transform="translate(-705.000000, -1724.000000)" fill="#F35875">
            <path d="M722.213942,1743.6875 L723.930288,1747.16477 C723.279647,1749.19887 722.101774,1750.84658 720.396634,1752.10795 C718.691498,1753.36932 716.790075,1754 714.69231,1754 C712.942301,1754 711.324125,1753.55966 709.83774,1752.67898 C708.351355,1751.79829 707.173482,1750.60512 706.304086,1749.09943 C705.434691,1747.59374 705,1745.95455 705,1744.18182 C705,1742.12499 705.586132,1740.25001 706.758414,1738.55682 C707.930695,1736.86363 709.470342,1735.66478 711.377403,1734.96023 L711.663461,1737.19318 C710.294865,1737.80682 709.201125,1738.74715 708.382212,1740.01421 C707.563297,1741.28125 707.153846,1742.67045 707.153846,1744.18182 C707.153846,1746.2841 707.891419,1748.08238 709.366586,1749.57671 C710.841754,1751.07103 712.616979,1751.81818 714.69231,1751.81818 C716.105775,1751.81818 717.40985,1751.44887 718.604568,1750.71023 C719.799286,1749.97159 720.724757,1748.97444 721.38101,1747.71875 C722.037263,1746.46306 722.314905,1745.11933 722.213942,1743.6875 Z M731.435098,1745.39205 L732.411058,1747.33523 L728.103366,1749.51705 C727.957534,1749.59659 727.794873,1749.63636 727.615386,1749.63636 C727.166667,1749.63636 726.846957,1749.4375 726.656252,1749.03977 L722.634615,1740.90909 L714.69231,1740.90909 C714.423077,1740.90909 714.184696,1740.81534 713.977162,1740.62784 C713.769632,1740.44034 713.649039,1740.21023 713.615384,1739.9375 L712.000001,1726.65909 C711.977563,1726.46591 712.011218,1726.22728 712.100964,1725.94318 C712.258012,1725.36363 712.577722,1724.89489 713.060097,1724.53693 C713.542472,1724.17898 714.086534,1724 714.69231,1724 C715.432696,1724 716.066504,1724.26704 716.593751,1724.80114 C717.120999,1725.33523 717.384615,1725.97727 717.384615,1726.72727 C717.384615,1727.51137 717.092952,1728.17897 716.509614,1728.73011 C715.926281,1729.28125 715.253209,1729.51705 714.490385,1729.4375 L715.112982,1734.36364 L722.230772,1734.36364 L722.230772,1736.54545 L715.382211,1736.54545 L715.651443,1738.72727 L723.307694,1738.72727 C723.756413,1738.72727 724.076123,1738.92614 724.266827,1739.32386 L728.103366,1747.07955 L731.435098,1745.39205 Z" id="Fill-1"></path>
        </g>
    </g>
</svg>