<?xml version="1.0" encoding="UTF-8"?>
<svg width="30px" height="25px" viewBox="0 0 30 25" version="1.1" xmlns="http://www.w3.org/2000/svg" xmlns:xlink="http://www.w3.org/1999/xlink">
    <!-- Generator: Sketch 52.6 (67491) - http://www.bohemiancoding.com/sketch -->
    <title>Fill 1</title>
    <desc>Created with Sketch.</desc>
    <g id="home" stroke="none" stroke-width="1" fill="none" fill-rule="evenodd">
        <g id="Desktop" transform="translate(-739.000000, -1467.000000)" fill="#F35875">
            <path d="M767.125,1470.75 L763.84375,1470.75 L763.84375,1467.9375 C763.84375,1467.3125 763.531251,1467 762.90625,1467 C762.281249,1467 761.96875,1467.3125 761.96875,1467.9375 L761.96875,1470.75 L757.75,1470.75 L757.75,1467.9375 C757.75,1467.3125 757.437501,1467 756.8125,1467 C756.187499,1467 755.875,1467.3125 755.875,1467.9375 L755.875,1470.75 L751.65625,1470.75 L751.65625,1467.9375 C751.65625,1467.3125 751.343751,1467 750.71875,1467 C750.093749,1467 749.78125,1467.3125 749.78125,1467.9375 L749.78125,1470.75 L745.5625,1470.75 L745.5625,1467.9375 C745.5625,1467.3125 745.250001,1467 744.625,1467 C743.999999,1467 743.6875,1467.3125 743.6875,1467.9375 L743.6875,1470.75 L740.875,1470.75 C740.328122,1470.75 739.878908,1470.92578 739.527344,1471.27734 C739.175779,1471.62891 739,1472.07812 739,1472.625 L739,1489.5 C739,1490.04688 739.175779,1490.49609 739.527344,1490.84766 C739.878908,1491.19922 740.328122,1491.375 740.875,1491.375 L767.125,1491.375 C767.671878,1491.375 768.121094,1491.19922 768.472656,1490.84766 C768.824219,1490.49609 769,1490.04688 769,1489.5 L769,1472.625 C769,1472.07812 768.824219,1471.62891 768.472656,1471.27734 C768.121094,1470.92578 767.671878,1470.75 767.125,1470.75 Z M767.125,1489.5 L740.875,1489.5 L740.875,1472.625 L743.6875,1472.625 C743.6875,1473.25 743.999999,1473.5625 744.625,1473.5625 C745.250001,1473.5625 745.5625,1473.25 745.5625,1472.625 L749.78125,1472.625 C749.78125,1473.25 750.093749,1473.5625 750.71875,1473.5625 C751.343751,1473.5625 751.65625,1473.25 751.65625,1472.625 L755.875,1472.625 C755.875,1473.25 756.187499,1473.5625 756.8125,1473.5625 C757.437501,1473.5625 757.75,1473.25 757.75,1472.625 L761.96875,1472.625 C761.96875,1473.25 762.281249,1473.5625 762.90625,1473.5625 C763.531251,1473.5625 763.84375,1473.25 763.84375,1472.625 L767.125,1472.625 L767.125,1489.5 Z M751.1875,1475.90625 C751.812501,1475.90625 752.125,1476.21874 752.125,1476.84375 C752.125,1477.46875 751.812501,1477.78125 751.1875,1477.78125 C750.562499,1477.78125 750.25,1477.46875 750.25,1476.84375 C750.25,1476.21874 750.562499,1475.90625 751.1875,1475.90625 Z M745.5625,1475.90625 C746.187501,1475.90625 746.5,1476.21874 746.5,1476.84375 C746.5,1477.46875 746.187501,1477.78125 745.5625,1477.78125 C744.937499,1477.78125 744.625,1477.46875 744.625,1476.84375 C744.625,1476.21874 744.937499,1475.90625 745.5625,1475.90625 Z M751.1875,1480.59375 C751.812501,1480.59375 752.125,1480.90625 752.125,1481.53125 C752.125,1482.15625 751.812501,1482.46875 751.1875,1482.46875 C750.562499,1482.46875 750.25,1482.15625 750.25,1481.53125 C750.25,1480.90625 750.562499,1480.59375 751.1875,1480.59375 Z M751.1875,1485.28125 C751.812501,1485.28125 752.125,1485.59375 752.125,1486.21875 C752.125,1486.84375 751.812501,1487.15625 751.1875,1487.15625 C750.562499,1487.15625 750.25,1486.84375 750.25,1486.21875 C750.25,1485.59375 750.562499,1485.28125 751.1875,1485.28125 Z M745.5625,1480.59375 C746.187501,1480.59375 746.5,1480.90625 746.5,1481.53125 C746.5,1482.15625 746.187501,1482.46875 745.5625,1482.46875 C744.937499,1482.46875 744.625,1482.15625 744.625,1481.53125 C744.625,1480.90625 744.937499,1480.59375 745.5625,1480.59375 Z M745.5625,1485.28125 C746.187501,1485.28125 746.5,1485.59375 746.5,1486.21875 C746.5,1486.84375 746.187501,1487.15625 745.5625,1487.15625 C744.937499,1487.15625 744.625,1486.84375 744.625,1486.21875 C744.625,1485.59375 744.937499,1485.28125 745.5625,1485.28125 Z M762.4375,1480.59375 C763.062501,1480.59375 763.375,1480.90625 763.375,1481.53125 C763.375,1482.15625 763.062501,1482.46875 762.4375,1482.46875 C761.812499,1482.46875 761.5,1482.15625 761.5,1481.53125 C761.5,1480.90625 761.812499,1480.59375 762.4375,1480.59375 Z M762.4375,1485.28125 C763.062501,1485.28125 763.375,1485.59375 763.375,1486.21875 C763.375,1486.84375 763.062501,1487.15625 762.4375,1487.15625 C761.812499,1487.15625 761.5,1486.84375 761.5,1486.21875 C761.5,1485.59375 761.812499,1485.28125 762.4375,1485.28125 Z M756.8125,1485.28125 C757.437501,1485.28125 757.75,1485.59375 757.75,1486.21875 C757.75,1486.84375 757.437501,1487.15625 756.8125,1487.15625 C756.187499,1487.15625 755.875,1486.84375 755.875,1486.21875 C755.875,1485.59375 756.187499,1485.28125 756.8125,1485.28125 Z M762.4375,1475.90625 C763.062501,1475.90625 763.375,1476.21874 763.375,1476.84375 C763.375,1477.46875 763.062501,1477.78125 762.4375,1477.78125 C761.812499,1477.78125 761.5,1477.46875 761.5,1476.84375 C761.5,1476.21874 761.812499,1475.90625 762.4375,1475.90625 Z M756.8125,1480.59375 C757.437501,1480.59375 757.75,1480.90625 757.75,1481.53125 C757.75,1482.15625 757.437501,1482.46875 756.8125,1482.46875 C756.187499,1482.46875 755.875,1482.15625 755.875,1481.53125 C755.875,1480.90625 756.187499,1480.59375 756.8125,1480.59375 Z M756.8125,1475.90625 C757.437501,1475.90625 757.75,1476.21874 757.75,1476.84375 C757.75,1477.46875 757.437501,1477.78125 756.8125,1477.78125 C756.187499,1477.78125 755.875,1477.46875 755.875,1476.84375 C755.875,1476.21874 756.187499,1475.90625 756.8125,1475.90625 Z" id="Fill-1"></path>
        </g>
    </g>
</svg>