<?xml version="1.0" encoding="UTF-8"?>
<svg width="30px" height="30px" viewBox="0 0 30 30" version="1.1" xmlns="http://www.w3.org/2000/svg" xmlns:xlink="http://www.w3.org/1999/xlink">
    <!-- Generator: Sketch 52.6 (67491) - http://www.bohemiancoding.com/sketch -->
    <title>Fill 1</title>
    <desc>Created with Sketch.</desc>
    <g id="Film-Event" stroke="none" stroke-width="1" fill="none" fill-rule="evenodd">
        <g id="Desktop" transform="translate(-703.000000, -1816.000000)" fill="#F35875">
            <path d="M731.125,1827.06509 L727.960938,1818.18935 C727.765622,1817.59763 727.365239,1817.08482 726.759767,1816.65089 C726.154292,1816.21696 725.539064,1816 724.914062,1816 L711.085938,1816 C710.460936,1816 709.845708,1816.21696 709.240233,1816.65089 C708.634761,1817.08482 708.234378,1817.59763 708.039062,1818.18935 L704.875,1827.06509 C703.624994,1828.20908 703,1829.57001 703,1831.14793 L703,1835.82249 C703,1836.80868 703.263669,1837.72583 703.791016,1838.57397 C704.318362,1839.4221 705.011715,1840.06311 705.871094,1840.49704 L705.871094,1843.98817 C705.871094,1844.46154 706.037108,1844.86588 706.369141,1845.20118 C706.701173,1845.53649 707.121093,1845.70414 707.628906,1845.70414 L710.5,1845.70414 C711.007814,1845.70414 711.427731,1845.53649 711.759767,1845.20118 C712.0918,1844.86588 712.257812,1844.46154 712.257812,1843.98817 L712.257812,1841.02959 L723.742188,1841.02959 L723.742188,1843.98817 C723.742188,1844.46154 723.9082,1844.86588 724.240233,1845.20118 C724.572269,1845.53649 724.992186,1845.70414 725.5,1845.70414 L728.371094,1845.70414 C728.878907,1845.70414 729.298825,1845.53649 729.630858,1845.20118 C729.962894,1844.86588 730.128906,1844.46154 730.128906,1843.98817 L730.128906,1840.49704 C732.042978,1839.55029 733,1837.99212 733,1835.82249 L733,1831.14793 C733,1829.57001 732.375006,1828.20908 731.125,1827.06509 Z M707.160156,1825.88166 L709.621094,1818.78107 C709.699218,1818.50493 709.894529,1818.25838 710.207031,1818.04142 C710.519534,1817.82446 710.812499,1817.71598 711.085938,1817.71598 L724.914062,1817.71598 C725.187501,1817.71598 725.480466,1817.82446 725.792969,1818.04142 C726.105471,1818.25838 726.300782,1818.50493 726.378906,1818.78107 L728.839844,1825.88166 L707.160156,1825.88166 Z M710.5,1843.98817 L707.628906,1843.98817 L707.628906,1841.02959 L710.5,1841.02959 L710.5,1843.98817 Z M728.371094,1841.02959 L728.371094,1843.98817 L725.5,1843.98817 L725.5,1841.02959 L728.371094,1841.02959 Z M731.242188,1835.82249 C731.242188,1836.76923 730.910159,1837.58777 730.246094,1838.2781 C729.582029,1838.96844 728.761724,1839.31361 727.785156,1839.31361 L708.214844,1839.31361 C707.238276,1839.31361 706.417972,1838.96844 705.753906,1838.2781 C705.089841,1837.58777 704.757812,1836.76923 704.757812,1835.82249 L704.757812,1831.14793 C704.757812,1830.16173 705.089841,1829.33334 705.753906,1828.66272 C706.417972,1827.99211 707.238276,1827.6568 708.214844,1827.6568 L727.785156,1827.6568 C728.761724,1827.6568 729.582029,1827.99211 730.246094,1828.66272 C730.910159,1829.33334 731.242188,1830.16173 731.242188,1831.14793 L731.242188,1835.82249 Z M709.328125,1831.73964 C708.703124,1831.73964 708.166019,1831.96647 707.716795,1832.42012 C707.267575,1832.87377 707.042969,1833.41617 707.042969,1834.04734 C707.042969,1834.6785 707.267575,1835.23077 707.716795,1835.70414 C708.166019,1836.17752 708.703124,1836.4142 709.328125,1836.4142 C709.953126,1836.4142 710.499996,1836.17752 710.96875,1835.70414 C711.437504,1835.23077 711.671875,1834.6785 711.671875,1834.04734 C711.671875,1833.41617 711.447269,1832.87377 710.998045,1832.42012 C710.548825,1831.96647 709.99219,1831.73964 709.328125,1831.73964 Z M710.148438,1834.87574 C709.914062,1835.11243 709.640628,1835.23077 709.328125,1835.23077 C709.015622,1835.23077 708.751953,1835.11243 708.537108,1834.87574 C708.322266,1834.63905 708.214844,1834.36292 708.214844,1834.04734 C708.214844,1833.73175 708.322266,1833.45562 708.537108,1833.21893 C708.751953,1832.98225 709.015622,1832.86391 709.328125,1832.86391 C709.640628,1832.86391 709.914062,1832.98225 710.148438,1833.21893 C710.382812,1833.45562 710.5,1833.73175 710.5,1834.04734 C710.5,1834.36292 710.382812,1834.63905 710.148438,1834.87574 Z M726.671875,1831.73964 C726.00781,1831.73964 725.451175,1831.96647 725.001955,1832.42012 C724.552731,1832.87377 724.328125,1833.41617 724.328125,1834.04734 C724.328125,1834.6785 724.562496,1835.23077 725.03125,1835.70414 C725.500004,1836.17752 726.046874,1836.4142 726.671875,1836.4142 C727.296876,1836.4142 727.833981,1836.17752 728.283205,1835.70414 C728.732425,1835.23077 728.957031,1834.6785 728.957031,1834.04734 C728.957031,1833.41617 728.732425,1832.87377 728.283205,1832.42012 C727.833981,1831.96647 727.296876,1831.73964 726.671875,1831.73964 Z M727.433594,1834.87574 C727.238279,1835.11243 726.984378,1835.23077 726.671875,1835.23077 C726.359372,1835.23077 726.085938,1835.11243 725.851562,1834.87574 C725.617188,1834.63905 725.5,1834.36292 725.5,1834.04734 C725.5,1833.73175 725.617188,1833.45562 725.851562,1833.21893 C726.085938,1832.98225 726.359372,1832.86391 726.671875,1832.86391 C726.984378,1832.86391 727.248047,1832.98225 727.462892,1833.21893 C727.677734,1833.45562 727.785156,1833.73175 727.785156,1834.04734 C727.785156,1834.36292 727.667969,1834.63905 727.433594,1834.87574 Z M723.214844,1832.33136 C723.214844,1831.93688 723.019532,1831.73964 722.628906,1831.73964 C722.23828,1831.73964 722.042969,1831.93688 722.042969,1832.33136 L722.042969,1835.82249 C722.042969,1836.21696 722.23828,1836.4142 722.628906,1836.4142 C723.019532,1836.4142 723.214844,1836.21696 723.214844,1835.82249 L723.214844,1832.33136 Z M718.585938,1832.33136 C718.585938,1831.93688 718.390626,1831.73964 718,1831.73964 C717.609374,1831.73964 717.414062,1831.93688 717.414062,1832.33136 L717.414062,1835.82249 C717.414062,1836.21696 717.609374,1836.4142 718,1836.4142 C718.390626,1836.4142 718.585938,1836.21696 718.585938,1835.82249 L718.585938,1832.33136 Z M720.285156,1831.73964 C719.933594,1831.73964 719.757812,1831.93688 719.757812,1832.33136 L719.757812,1835.82249 C719.757812,1836.21696 719.933594,1836.4142 720.285156,1836.4142 C720.675782,1836.4142 720.871094,1836.21696 720.871094,1835.82249 L720.871094,1832.33136 C720.871094,1831.93688 720.675782,1831.73964 720.285156,1831.73964 Z M713.957031,1832.33136 C713.957031,1831.93688 713.76172,1831.73964 713.371094,1831.73964 C712.980468,1831.73964 712.785156,1831.93688 712.785156,1832.33136 L712.785156,1835.82249 C712.785156,1836.21696 712.980468,1836.4142 713.371094,1836.4142 C713.76172,1836.4142 713.957031,1836.21696 713.957031,1835.82249 L713.957031,1832.33136 Z M715.714844,1831.73964 C715.324218,1831.73964 715.128906,1831.93688 715.128906,1832.33136 L715.128906,1835.82249 C715.128906,1836.21696 715.324218,1836.4142 715.714844,1836.4142 C716.066406,1836.4142 716.242188,1836.21696 716.242188,1835.82249 L716.242188,1832.33136 C716.242188,1831.93688 716.066406,1831.73964 715.714844,1831.73964 Z M711.671875,1819.07692 C711.320312,1818.95858 711.085938,1819.09665 710.96875,1819.49112 L709.503906,1823.92899 C709.347655,1824.28402 709.464843,1824.54043 709.855469,1824.69822 C710.207031,1824.85602 710.460936,1824.73767 710.617188,1824.3432 L712.082031,1819.90533 C712.199219,1819.4714 712.062501,1819.19527 711.671875,1819.07692 Z" id="Fill-1"></path>
        </g>
    </g>
</svg>