<?xml version="1.0" encoding="UTF-8"?>
<svg width="56px" height="54px" viewBox="0 0 56 54" version="1.1"
	xmlns="http://www.w3.org/2000/svg"
	xmlns:xlink="http://www.w3.org/1999/xlink">
	<!-- Generator: Sketch 52.6 (67491) - http://www.bohemiancoding.com/sketch -->
	<title>Group 2</title>
	<desc>Created with Sketch.</desc>
	<g stroke="none" stroke-width="1" fill="none" fill-rule="evenodd">
		<g fill="#FDC252">
			<g transform="translate(21.000000, 3.000000)">
				<path d="M17.2880404,7.02182969 C22.1890404,7.02182969 27.0900404,7.02082969 31.9910404,7.02182969 C33.0700404,7.02182969 34.3960404,6.84382969 34.4560404,8.49482969 C34.5200404,10.2758297 33.1850404,10.2858297 31.9690404,10.2848297 C22.1670404,10.2798297 12.3650404,10.2828297 2.56204039,10.2808297 C1.39304039,10.2798297 0.00804038967,10.4258297 4.03896666e-05,8.59082969 C-0.00895961033,6.62282969 1.48804039,7.03882969 2.58404039,7.03282969 C7.48504039,7.00682969 12.3870404,7.02182969 17.2880404,7.02182969"></path>
				<path d="M17.2601136,0.00340528735 C21.9161136,0.00440528735 26.5721136,0.00240528735 31.2291136,0.00540528735 C31.8101136,0.00640528735 32.3991136,-0.0265947127 32.9711136,0.0594052873 C33.8821136,0.196405287 34.5561136,0.668405287 34.4721136,1.81640529 C34.3991136,2.82840529 33.7381136,3.18940529 32.9241136,3.20540529 C30.9291136,3.24540529 28.9341136,3.23440529 26.9381136,3.23540529 C19.2891136,3.23740529 11.6391136,3.23740529 3.99011365,3.23340529 C3.24311365,3.23340529 2.49411365,3.22540529 1.74911365,3.17340529 C0.752113648,3.10440529 -0.0728863524,2.76240529 0.00511364755,1.43340529 C0.0761136476,0.213405287 0.944113648,0.0394052873 1.79511365,0.0274052873 C4.62211365,-0.0115947127 7.44911365,0.00540528735 10.2761136,0.00340528735 C12.6041136,0.00240528735 14.9321136,0.00340528735 17.2601136,0.00340528735"></path>
				<path d="M17.2880404,45.0218297 C22.1890404,45.0218297 27.0900404,45.0208297 31.9910404,45.0218297 C33.0700404,45.0218297 34.3960404,44.8438297 34.4560404,46.4948297 C34.5200404,48.2758297 33.1850404,48.2858297 31.9690404,48.2848297 C22.1670404,48.2798297 12.3650404,48.2828297 2.56204039,48.2808297 C1.39304039,48.2798297 0.00804038967,48.4258297 4.03896666e-05,46.5908297 C-0.00895961033,44.6228297 1.48804039,45.0388297 2.58404039,45.0328297 C7.48504039,45.0068297 12.3870404,45.0218297 17.2880404,45.0218297"></path>
				<path d="M17.2601136,38.0034053 C21.9161136,38.0044053 26.5721136,38.0024053 31.2291136,38.0054053 C31.8101136,38.0064053 32.3991136,37.9734053 32.9711136,38.0594053 C33.8821136,38.1964053 34.5561136,38.6684053 34.4721136,39.8164053 C34.3991136,40.8284053 33.7381136,41.1894053 32.9241136,41.2054053 C30.9291136,41.2454053 28.9341136,41.2344053 26.9381136,41.2354053 C19.2891136,41.2374053 11.6391136,41.2374053 3.99011365,41.2334053 C3.24311365,41.2334053 2.49411365,41.2254053 1.74911365,41.1734053 C0.752113648,41.1044053 -0.0728863524,40.7624053 0.00511364755,39.4334053 C0.0761136476,38.2134053 0.944113648,38.0394053 1.79511365,38.0274053 C4.62211365,37.9884053 7.44911365,38.0054053 10.2761136,38.0034053 C12.6041136,38.0024053 14.9321136,38.0034053 17.2601136,38.0034053"></path>
				<path d="M17.2880404,26.0218297 C22.1890404,26.0218297 27.0900404,26.0208297 31.9910404,26.0218297 C33.0700404,26.0218297 34.3960404,25.8438297 34.4560404,27.4948297 C34.5200404,29.2768297 33.1850404,29.2858297 31.9690404,29.2848297 C22.1670404,29.2798297 12.3650404,29.2828297 2.56204039,29.2808297 C1.39304039,29.2798297 0.00804038967,29.4258297 4.03896666e-05,27.5908297 C-0.00895961033,25.6228297 1.48804039,26.0388297 2.58404039,26.0328297 C7.48504039,26.0068297 12.3870404,26.0218297 17.2880404,26.0218297"></path>
				<path d="M17.2601136,19.0032218 C21.9161136,19.0042218 26.5721136,19.0022218 31.2291136,19.0062218 C31.8101136,19.0062218 32.3991136,18.9732218 32.9711136,19.0592218 C33.8821136,19.1962218 34.5561136,19.6682218 34.4721136,20.8162218 C34.3991136,21.8282218 33.7381136,22.1892218 32.9241136,22.2052218 C30.9291136,22.2452218 28.9341136,22.2342218 26.9381136,22.2352218 C19.2891136,22.2372218 11.6391136,22.2372218 3.99011365,22.2332218 C3.24311365,22.2332218 2.49411365,22.2252218 1.74911365,22.1732218 C0.752113648,22.1042218 -0.0728863524,21.7622218 0.00511364755,20.4332218 C0.0761136476,19.2132218 0.944113648,19.0392218 1.79511365,19.0272218 C4.62211365,18.9882218 7.44911365,19.0062218 10.2761136,19.0032218 C12.6041136,19.0022218 14.9321136,19.0032218 17.2601136,19.0032218"></path>
			</g>
			<text font-family="Hotel-Black, Hotel" font-size="16" font-weight="800" line-spacing="14">
				<tspan x="0" y="16">M</tspan>
				<tspan x="2.416" y="30">E</tspan>
				<tspan x="2" y="44">N</tspan>
				<tspan x="2" y="58">U</tspan>
			</text>
		</g>
	</g>
</svg>