<?xml version="1.0" encoding="UTF-8"?>
<svg width="24px" height="30px" viewBox="0 0 24 30" version="1.1" xmlns="http://www.w3.org/2000/svg" xmlns:xlink="http://www.w3.org/1999/xlink">
    <!-- Generator: Sketch 52.6 (67491) - http://www.bohemiancoding.com/sketch -->
    <title>Fill 1</title>
    <desc>Created with Sketch.</desc>
    <g id="home" stroke="none" stroke-width="1" fill="none" fill-rule="evenodd">
        <g id="Desktop" transform="translate(-785.000000, -4595.000000)" fill="#F35875">
            <path d="M807.03125,4595 L786.40625,4595 C786.015623,4595 785.683595,4595.13672 785.410156,4595.41016 C785.136717,4595.6836 785,4596.01562 785,4596.40625 L785,4623.59375 C785,4623.98438 785.136717,4624.3164 785.410156,4624.58984 C785.683595,4624.86328 786.015623,4625 786.40625,4625 L807.03125,4625 C807.421876,4625 807.753905,4624.86328 808.027344,4624.58984 C808.300782,4624.3164 808.4375,4623.98438 808.4375,4623.59375 L808.4375,4596.40625 C808.4375,4596.01562 808.300782,4595.6836 808.027344,4595.41016 C807.753905,4595.13672 807.421876,4595 807.03125,4595 Z M806.5625,4623.125 L786.875,4623.125 L786.875,4596.875 L806.5625,4596.875 L806.5625,4623.125 Z M790.15625,4605.78125 L794.84375,4605.78125 C795.468751,4605.78125 795.78125,4605.46875 795.78125,4604.84375 L795.78125,4599.6875 C795.78125,4599.0625 795.468751,4598.75 794.84375,4598.75 L790.15625,4598.75 C789.531245,4598.75 789.21875,4599.0625 789.21875,4599.6875 L789.21875,4604.84375 C789.21875,4605.46875 789.531245,4605.78125 790.15625,4605.78125 Z M798.59375,4601.09375 L803.28125,4601.09375 C803.906251,4601.09375 804.21875,4600.78125 804.21875,4600.15625 L804.21875,4599.6875 C804.21875,4599.0625 803.906251,4598.75 803.28125,4598.75 L798.59375,4598.75 C797.968749,4598.75 797.65625,4599.0625 797.65625,4599.6875 L797.65625,4600.15625 C797.65625,4600.78125 797.968749,4601.09375 798.59375,4601.09375 Z M798.359375,4603.4375 L803.515625,4603.4375 C803.671876,4603.4375 803.828124,4603.35938 803.984375,4603.20312 C804.140626,4603.04687 804.21875,4602.89063 804.21875,4602.73438 C804.21875,4602.57812 804.140626,4602.42188 803.984375,4602.26562 C803.828124,4602.10937 803.671876,4602.03125 803.515625,4602.03125 L798.359375,4602.03125 C798.203124,4602.03125 798.046876,4602.10937 797.890625,4602.26562 C797.734374,4602.42188 797.65625,4602.57812 797.65625,4602.73438 C797.65625,4602.89063 797.734374,4603.04687 797.890625,4603.20312 C798.046876,4603.35938 798.203124,4603.4375 798.359375,4603.4375 Z M798.359375,4605.78125 L803.515625,4605.78125 C803.671876,4605.78125 803.828124,4605.70313 803.984375,4605.54688 C804.140626,4605.39062 804.21875,4605.23438 804.21875,4605.07812 C804.21875,4604.92187 804.140626,4604.76563 803.984375,4604.60938 C803.828124,4604.45312 803.671876,4604.375 803.515625,4604.375 L798.359375,4604.375 C798.203124,4604.375 798.046876,4604.45312 797.890625,4604.60938 C797.734374,4604.76563 797.65625,4604.92187 797.65625,4605.07812 C797.65625,4605.23438 797.734374,4605.39062 797.890625,4605.54688 C798.046876,4605.70313 798.203124,4605.78125 798.359375,4605.78125 Z M790.15625,4610 L803.28125,4610 C803.906251,4610 804.21875,4609.6875 804.21875,4609.0625 C804.21875,4608.4375 803.906251,4608.125 803.28125,4608.125 L790.15625,4608.125 C789.531245,4608.125 789.21875,4608.4375 789.21875,4609.0625 C789.21875,4609.6875 789.531245,4610 790.15625,4610 Z M790.15625,4613.75 L803.28125,4613.75 C803.906251,4613.75 804.21875,4613.4375 804.21875,4612.8125 C804.21875,4612.1875 803.906251,4611.875 803.28125,4611.875 L790.15625,4611.875 C789.531245,4611.875 789.21875,4612.1875 789.21875,4612.8125 C789.21875,4613.4375 789.531245,4613.75 790.15625,4613.75 Z M790.15625,4617.5 L803.28125,4617.5 C803.906251,4617.5 804.21875,4617.1875 804.21875,4616.5625 C804.21875,4615.9375 803.906251,4615.625 803.28125,4615.625 L790.15625,4615.625 C789.531245,4615.625 789.21875,4615.9375 789.21875,4616.5625 C789.21875,4617.1875 789.531245,4617.5 790.15625,4617.5 Z M790.15625,4621.25 L803.28125,4621.25 C803.906251,4621.25 804.21875,4620.9375 804.21875,4620.3125 C804.21875,4619.6875 803.906251,4619.375 803.28125,4619.375 L790.15625,4619.375 C789.531245,4619.375 789.21875,4619.6875 789.21875,4620.3125 C789.21875,4620.9375 789.531245,4621.25 790.15625,4621.25 Z" id="Fill-1"></path>
        </g>
    </g>
</svg>