<?xml version="1.0" encoding="UTF-8"?>
<svg width="25px" height="30px" viewBox="0 0 25 30" version="1.1" xmlns="http://www.w3.org/2000/svg" xmlns:xlink="http://www.w3.org/1999/xlink">
    <!-- Generator: Sketch 52.6 (67491) - http://www.bohemiancoding.com/sketch -->
    <title>Fill 1</title>
    <desc>Created with Sketch.</desc>
    <g id="Film-Event" stroke="none" stroke-width="1" fill="none" fill-rule="evenodd">
        <g id="Desktop" transform="translate(-704.000000, -1678.000000)" fill="#F35875">
            <path d="M724.746753,1681.39844 C724.240258,1681.39844 723.811688,1681.47656 723.461039,1681.63281 C722.915582,1680.49999 722.058449,1679.93359 720.88961,1679.93359 C720.383116,1679.93359 719.896108,1680.07031 719.428571,1680.34375 L719.37013,1680.34375 L719.311688,1680.34375 C718.571424,1679.09374 717.480528,1678.46875 716.038961,1678.46875 C715.493504,1678.46875 714.870134,1678.64453 714.168831,1678.99609 L713.467532,1679.46484 L713,1678.9375 C712.376622,1678.3125 711.616889,1678 710.720779,1678 C709.785711,1678 708.987015,1678.33203 708.324675,1678.99609 C707.662334,1679.66016 707.331169,1680.46093 707.331169,1681.39844 L707.331169,1681.69141 L707.38961,1681.92578 L707.097403,1681.92578 C706.201294,1682.1211 705.461042,1682.57031 704.876623,1683.27344 C704.292205,1683.97657 704,1684.79687 704,1685.73438 L704,1686.73047 L706.220779,1707.53125 C706.298702,1707.84375 706.474025,1708 706.746753,1708 L724.337662,1708 C724.688312,1708 724.863636,1707.84375 724.863636,1707.53125 L727.025974,1687.49219 C727.727276,1686.71094 728.077922,1685.81251 728.077922,1684.79688 C728.077922,1683.82031 727.756495,1683.00977 727.113638,1682.36523 C726.470777,1681.7207 725.681822,1681.39844 724.746753,1681.39844 Z M705.928571,1685.73438 C705.928571,1685.26562 706.084414,1684.83594 706.396104,1684.44531 C706.707794,1684.09375 707.0974,1683.87891 707.564935,1683.80078 C708.500004,1684.15234 709.162336,1684.07422 709.551948,1683.56641 C709.746756,1683.29297 709.814937,1683.01953 709.756492,1682.74609 C709.69805,1682.47266 709.61039,1682.21875 709.493506,1681.98438 L709.25974,1681.63281 L709.25974,1681.39844 C709.25974,1681.00781 709.415582,1680.65625 709.727273,1680.34375 C710.000001,1680.07031 710.331168,1679.93359 710.720779,1679.93359 C711.227274,1679.93359 711.636361,1680.14844 711.948052,1680.57812 L712.181818,1681.10547 L712.181818,1681.16406 L712.181818,1682.10156 C712.181818,1682.45312 712.298701,1682.74609 712.532468,1682.98047 C712.766234,1683.21484 713.058442,1683.33203 713.409091,1683.33203 C713.720782,1683.33203 713.993506,1683.21484 714.227273,1682.98047 C714.461039,1682.74609 714.577922,1682.45312 714.577922,1682.10156 L714.577922,1681.16406 L714.577922,1681.04688 L714.811688,1680.92969 C715.162338,1680.57812 715.571425,1680.40234 716.038961,1680.40234 C716.31169,1680.40234 716.642856,1680.48047 717.032468,1680.63672 C717.383117,1680.91016 717.616883,1681.14453 717.733766,1681.33984 C717.538959,1682.7461 717.870125,1683.48828 718.727273,1683.56641 C719.116884,1683.60547 719.448051,1683.48828 719.720779,1683.21484 C719.993508,1682.94141 720.168832,1682.66797 720.246753,1682.39453 L720.363636,1681.98438 C720.597403,1681.90625 720.772727,1681.86719 720.88961,1681.86719 C721.084418,1681.86719 721.259739,1681.92578 721.415584,1682.04297 C721.610392,1682.16016 721.707792,1682.27734 721.707792,1682.39453 C721.66883,1683.76173 722.077917,1684.44531 722.935065,1684.44531 C723.324677,1684.44531 723.626624,1684.35742 723.840911,1684.18164 C724.055194,1684.00586 724.181817,1683.82031 724.220779,1683.625 L724.220779,1683.39062 C724.259742,1683.39062 724.337662,1683.38086 724.454545,1683.36133 C724.571429,1683.3418 724.668832,1683.33203 724.746753,1683.33203 C725.136365,1683.33203 725.467531,1683.46875 725.74026,1683.74219 C726.012988,1684.01563 726.149351,1684.36719 726.149351,1684.79688 C726.149351,1685.1875 726.012988,1685.59765 725.74026,1686.02734 C725.467531,1686.45703 725.155844,1686.69141 724.805195,1686.73047 L705.928571,1686.73047 L705.928571,1685.73438 Z M715.571429,1700.26562 C714.753243,1700.26562 714.061691,1699.98242 713.496751,1699.41602 C712.931815,1698.84961 712.649351,1698.15625 712.649351,1697.33594 C712.649351,1696.55469 712.931815,1695.88086 713.496751,1695.31445 C714.061691,1694.74804 714.753243,1694.46484 715.571429,1694.46484 C716.350652,1694.46484 717.022724,1694.74804 717.58766,1695.31445 C718.152601,1695.88086 718.435065,1696.55469 718.435065,1697.33594 C718.435065,1698.15625 718.152601,1698.84961 717.58766,1699.41602 C717.022724,1699.98242 716.350652,1700.26562 715.571429,1700.26562 Z M706.162338,1688.66406 L706.337662,1688.66406 L714.577922,1688.66406 L714.577922,1692.58984 C713.448046,1692.82422 712.522732,1693.39062 711.80195,1694.28906 C711.081164,1695.18751 710.720779,1696.20312 710.720779,1697.33594 C710.720779,1698.50782 711.081164,1699.54296 711.80195,1700.44141 C712.522732,1701.33985 713.448046,1701.88672 714.577922,1702.08203 L714.577922,1706.06641 L708.032468,1706.06641 L706.162338,1688.66406 Z M723.11039,1706.06641 L716.506494,1706.06641 L716.506494,1702.08203 C717.63637,1701.88672 718.561684,1701.33985 719.282469,1700.44141 C720.003251,1699.54296 720.363636,1698.50782 720.363636,1697.33594 C720.363636,1696.20312 720.003251,1695.18751 719.282469,1694.28906 C718.561684,1693.39062 717.63637,1692.82422 716.506494,1692.58984 L716.506494,1688.66406 L724.746753,1688.66406 L724.922078,1688.66406 L724.980519,1688.66406 L723.11039,1706.06641 Z" id="Fill-1"></path>
        </g>
    </g>
</svg>