<?xml version="1.0" encoding="UTF-8"?>
<svg width="30px" height="29px" viewBox="0 0 30 29" version="1.1" xmlns="http://www.w3.org/2000/svg" xmlns:xlink="http://www.w3.org/1999/xlink">
    <!-- Generator: Sketch 52.6 (67491) - http://www.bohemiancoding.com/sketch -->
    <title>Fill 1</title>
    <desc>Created with Sketch.</desc>
    <g id="Film-Event" stroke="none" stroke-width="1" fill="none" fill-rule="evenodd">
        <g id="Desktop" transform="translate(-701.000000, -1583.000000)" fill="#F35875">
            <path d="M704.984375,1607.56064 L714.476562,1607.56064 L714.476562,1599.71968 L704.984375,1599.71968 L704.984375,1607.56064 Z M706.976562,1601.67992 L712.484375,1601.67992 L712.484375,1605.6004 L706.976562,1605.6004 L706.976562,1601.67992 Z M711.019531,1591.82107 C711.527345,1593.0126 712.318355,1593.96388 713.39258,1594.67495 C714.466801,1595.38602 715.667964,1595.74155 716.996094,1595.74155 C718.832041,1595.74155 720.374994,1595.12658 721.625,1593.89662 C722.875006,1592.66666 723.5,1591.14845 723.5,1589.34195 C723.5,1587.57388 722.865241,1586.07489 721.595705,1584.84493 C720.326165,1583.61497 718.792978,1583 716.996094,1583 C715.19921,1583 713.666023,1583.61497 712.396483,1584.84493 C711.126946,1586.07489 710.492188,1587.57388 710.492188,1589.34195 C710.492188,1589.611 710.511718,1589.8224 710.550781,1589.97614 C709.847652,1588.59244 708.656259,1587.9006 706.976562,1587.9006 C705.882808,1587.9006 704.945315,1588.28495 704.164062,1589.05368 C703.382809,1589.8224 702.992188,1590.74486 702.992188,1591.82107 C702.992188,1592.89729 703.382809,1593.81975 704.164062,1594.58847 C704.945315,1595.35719 705.882808,1595.74155 706.976562,1595.74155 C708.109381,1595.74155 709.066404,1595.35719 709.847656,1594.58847 C710.628909,1593.81975 711.019531,1592.89729 711.019531,1591.82107 Z M713.773438,1586.22863 C714.671881,1585.38303 715.746088,1584.96024 716.996094,1584.96024 C718.2461,1584.96024 719.310541,1585.38303 720.189455,1586.22863 C721.068365,1587.07423 721.507812,1588.11199 721.507812,1589.34195 C721.507812,1590.57191 721.068365,1591.61928 720.189455,1592.48409 C719.310541,1593.34891 718.2461,1593.78131 716.996094,1593.78131 C715.746088,1593.78131 714.681646,1593.34891 713.802733,1592.48409 C712.923823,1591.61928 712.484375,1590.57191 712.484375,1589.34195 C712.484375,1588.11199 712.914058,1587.07423 713.773438,1586.22863 Z M708.382812,1593.20477 C707.992186,1593.58913 707.52344,1593.78131 706.976562,1593.78131 C706.429685,1593.78131 705.960939,1593.58913 705.570312,1593.20477 C705.179686,1592.82041 704.984375,1592.35918 704.984375,1591.82107 C704.984375,1591.28297 705.179686,1590.82174 705.570312,1590.43738 C705.960939,1590.05301 706.429685,1589.86083 706.976562,1589.86083 C707.52344,1589.86083 708.001951,1590.05301 708.412108,1590.43738 C708.822267,1590.82174 709.027344,1591.28297 709.027344,1591.82107 C709.027344,1592.35918 708.812503,1592.82041 708.382812,1593.20477 Z M731,1595.74155 L725.023438,1598.73956 L725.023438,1596.72167 C725.023438,1596.45262 724.925784,1596.222 724.730469,1596.02982 C724.535154,1595.83764 724.300782,1595.74155 724.027344,1595.74155 L701.996094,1595.74155 C701.722655,1595.74155 701.488282,1595.83764 701.292969,1596.02982 C701.097655,1596.222 701,1596.45262 701,1596.72167 L701,1610.50099 C701,1610.77005 701.097655,1611.00066 701.292969,1611.19284 C701.488282,1611.38502 701.722655,1611.48111 701.996094,1611.48111 L724.027344,1611.48111 C724.300782,1611.48111 724.535154,1611.38502 724.730469,1611.19284 C724.925784,1611.00066 725.023438,1610.77005 725.023438,1610.50099 L725.023438,1608.54076 L731,1611.48111 L731,1595.74155 Z M722.972656,1609.52087 L702.992188,1609.52087 L702.992188,1597.75944 L722.972656,1597.75944 L722.972656,1609.52087 Z M729.007812,1608.31014 L725.023438,1606.3499 L725.023438,1600.93042 L729.007812,1598.97018 L729.007812,1608.31014 Z M720.394531,1602.25646 C720.785157,1602.64082 720.980469,1603.10205 720.980469,1603.64016 C720.980469,1604.17827 720.785157,1604.6395 720.394531,1605.02386 C720.003905,1605.40822 719.535159,1605.6004 718.988281,1605.6004 C718.441404,1605.6004 717.972657,1605.40822 717.582031,1605.02386 C717.191405,1604.6395 716.996094,1604.17827 716.996094,1603.64016 C716.996094,1603.10205 717.191405,1602.64082 717.582031,1602.25646 C717.972657,1601.8721 718.441404,1601.67992 718.988281,1601.67992 C719.535159,1601.67992 720.003905,1601.8721 720.394531,1602.25646 Z M718.402344,1587.95825 C718.79297,1588.34261 718.988281,1588.80384 718.988281,1589.34195 C718.988281,1589.88006 718.79297,1590.35089 718.402344,1590.75447 C718.011718,1591.15805 717.542971,1591.35984 716.996094,1591.35984 C716.449216,1591.35984 715.98047,1591.15805 715.589844,1590.75447 C715.199218,1590.35089 715.003906,1589.88006 715.003906,1589.34195 C715.003906,1588.80384 715.199218,1588.34261 715.589844,1587.95825 C715.98047,1587.57389 716.449216,1587.38171 716.996094,1587.38171 C717.542971,1587.38171 718.011718,1587.57389 718.402344,1587.95825 Z" id="Fill-1"></path>
        </g>
    </g>
</svg>