<?xml version="1.0" encoding="UTF-8"?>
<svg width="26px" height="30px" viewBox="0 0 26 30" version="1.1" xmlns="http://www.w3.org/2000/svg" xmlns:xlink="http://www.w3.org/1999/xlink">
    <!-- Generator: Sketch 52.6 (67491) - http://www.bohemiancoding.com/sketch -->
    <title>Fill 1</title>
    <desc>Created with Sketch.</desc>
    <g id="Film-Event" stroke="none" stroke-width="1" fill="none" fill-rule="evenodd">
        <g id="Desktop" transform="translate(-705.000000, -1770.000000)" fill="#F35875">
            <path d="M717.813559,1770 L705,1773.75 L705,1783.125 C705.039548,1784.57032 705.494346,1786.1328 706.364407,1787.8125 C707.234468,1789.4922 708.302254,1791.02538 709.567797,1792.41211 C710.83334,1793.79884 712.088977,1795.07812 713.334744,1796.25 C714.580514,1797.42188 715.638413,1798.33984 716.508475,1799.00391 L717.813559,1800 C718.169492,1799.76562 718.634178,1799.42383 719.207629,1798.97461 C719.781077,1798.52539 720.799426,1797.63673 722.262712,1796.30859 C723.725998,1794.98046 725.011294,1793.67188 726.118644,1792.38281 C727.225994,1791.09374 728.244347,1789.58985 729.173731,1787.87109 C730.103111,1786.15233 730.587569,1784.57032 730.627119,1783.125 L730.627119,1773.75 L717.813559,1770 Z M728.728814,1783.125 C728.689264,1784.37501 728.29379,1785.72265 727.542373,1787.16797 C726.790955,1788.61329 725.88136,1789.93164 724.813559,1791.12305 C723.745759,1792.31446 722.68786,1793.41796 721.639829,1794.43359 C720.591801,1795.44923 719.692095,1796.25 718.940678,1796.83594 L717.813559,1797.65625 C717.536722,1797.46094 717.151131,1797.16797 716.656778,1796.77734 C716.162429,1796.38672 715.292379,1795.62501 714.046608,1794.49219 C712.800842,1793.35937 711.703394,1792.23633 710.754237,1791.12305 C709.805081,1790.00976 708.935031,1788.71094 708.144068,1787.22656 C707.353103,1785.74218 706.937853,1784.37501 706.898305,1783.125 L706.898305,1775.15625 L717.813559,1771.875 L728.728814,1775.15625 L728.728814,1783.125 Z M712.355932,1783.94531 C712.118644,1783.67187 711.901132,1783.67187 711.70339,1783.94531 L711.050847,1784.58984 C710.77401,1784.78516 710.77401,1785 711.050847,1785.23438 L715.737288,1789.86328 C715.935031,1790.0586 716.152542,1790.0586 716.389831,1789.86328 L725.347458,1781.01562 C725.5452,1780.78125 725.5452,1780.56641 725.347458,1780.37109 L724.694915,1779.72656 C724.457627,1779.45312 724.240116,1779.45312 724.042373,1779.72656 L716.033898,1787.57812 L712.355932,1783.94531 Z" id="Fill-1"></path>
        </g>
    </g>
</svg>