<?xml version="1.0" encoding="UTF-8"?>
<svg width="34px" height="34px" viewBox="0 0 34 34" version="1.1" xmlns="http://www.w3.org/2000/svg" xmlns:xlink="http://www.w3.org/1999/xlink">
    <!-- Generator: Sketch 52.6 (67491) - http://www.bohemiancoding.com/sketch -->
    <title>Fill 1</title>
    <desc>Created with Sketch.</desc>
    <g id="Film-Event" stroke="none" stroke-width="1" fill="none" fill-rule="evenodd">
        <g id="Desktop" transform="translate(-698.000000, -1630.000000)" fill="#F35875">
            <path d="M717.703269,1634.05874 C717.703269,1635.07437 717.37124,1635.95326 716.707175,1636.69546 C716.04311,1637.43765 715.222805,1637.80874 714.246237,1637.80874 C713.26967,1637.80874 712.4396,1637.43765 711.756005,1636.69546 C711.072406,1635.95326 710.730612,1635.07437 710.730612,1634.05874 L705.105612,1634.05874 L705.105612,1664.05874 L710.730612,1664.05874 C710.730612,1663.04311 711.062641,1662.16421 711.726706,1661.42202 C712.390771,1660.67983 713.211076,1660.30874 714.187644,1660.30874 C715.164211,1660.30874 715.984516,1660.67983 716.648581,1661.42202 C717.312646,1662.16421 717.644675,1663.04311 717.644675,1664.05874 L722.918112,1664.05874 L722.918112,1634.05874 L717.703269,1634.05874 Z M719.2853,1662.18374 C718.894674,1661.08998 718.240381,1660.19155 717.322407,1659.48842 C716.404437,1658.7853 715.359526,1658.43374 714.187644,1658.43374 C713.054825,1658.43374 712.029444,1658.7853 711.11147,1659.48842 C710.1935,1660.19155 709.539207,1661.08998 709.148581,1662.18374 L706.980612,1662.18374 L706.980612,1644.83999 L711.199362,1644.83999 L711.199362,1643.43374 L706.980612,1643.43374 L706.980612,1635.93374 L709.207175,1635.93374 C709.558737,1637.02749 710.1935,1637.92592 711.11147,1638.62905 C712.029444,1639.33218 713.074355,1639.68374 714.246237,1639.68374 C715.41812,1639.68374 716.463031,1639.33218 717.381005,1638.62905 C718.298975,1637.92592 718.933737,1637.02749 719.2853,1635.93374 L721.043112,1635.93374 L721.043112,1643.43374 L714.949362,1643.43374 L714.949362,1644.83999 L721.043112,1644.83999 L721.043112,1662.18374 L719.2853,1662.18374 Z M712.136862,1643.43374 L714.011862,1643.43374 L714.011862,1644.83999 L712.136862,1644.83999 L712.136862,1643.43374 Z" id="Fill-1" transform="translate(717.058737, 1649.058737) rotate(45.000000) translate(-717.058737, -1649.058737) "></path>
        </g>
    </g>
</svg>