<?xml version="1.0" encoding="UTF-8"?>
<svg width="17px" height="30px" viewBox="0 0 17 30" version="1.1" xmlns="http://www.w3.org/2000/svg" xmlns:xlink="http://www.w3.org/1999/xlink">
    <!-- Generator: Sketch 52.6 (67491) - http://www.bohemiancoding.com/sketch -->
    <title>Fill 1</title>
    <desc>Created with Sketch.</desc>
    <g id="Film-Event" stroke="none" stroke-width="1" fill="none" fill-rule="evenodd">
        <g id="Desktop" transform="translate(-709.000000, -1862.000000)" fill="#F35875">
            <path d="M716.36,1862.9375 C716.36,1862.3125 716.053335,1862 715.44,1862 C714.826665,1862 714.52,1862.3125 714.52,1862.9375 L714.52,1869.5 C714.52,1869.8125 714.366669,1869.96875 714.06,1869.96875 C713.753331,1869.96875 713.6,1869.8125 713.6,1869.5 L713.6,1862.9375 C713.6,1862.3125 713.293335,1862 712.68,1862 C712.066664,1862 711.76,1862.3125 711.76,1862.9375 L711.76,1869.5 C711.76,1869.8125 711.606668,1869.96875 711.3,1869.96875 C710.993332,1869.96875 710.84,1869.8125 710.84,1869.5 L710.84,1862.9375 C710.84,1862.3125 710.533336,1862 709.92,1862 C709.306664,1862 709,1862.3125 709,1862.9375 L709,1869.96875 C709,1871.53126 709.766659,1872.58594 711.3,1873.13281 L711.3,1890.59375 C711.3,1890.98438 711.434165,1891.31641 711.7025,1891.58984 C711.970835,1891.86328 712.296665,1892 712.68,1892 C713.063335,1892 713.389165,1891.86328 713.6575,1891.58984 C713.925835,1891.31641 714.06,1890.98438 714.06,1890.59375 L714.06,1873.13281 C715.593342,1872.58594 716.36,1871.53126 716.36,1869.96875 L716.36,1862.9375 Z M724.18,1862 C723.835,1862 723.5475,1862.11719 723.3175,1862.35156 C722.742496,1862.66406 722.225004,1863.62109 721.765,1865.22266 C721.304996,1866.82423 721.075,1868.09375 721.075,1869.03125 C721.075,1870.5547 721.199583,1872.2539 721.448748,1874.12891 C721.697917,1876.00392 722.148331,1876.98047 722.8,1877.05859 L722.8,1890.59375 C722.8,1890.98438 722.934165,1891.31641 723.2025,1891.58984 C723.470835,1891.86328 723.796665,1892 724.18,1892 C724.563335,1892 724.889165,1891.86328 725.1575,1891.58984 C725.425835,1891.31641 725.56,1890.98438 725.56,1890.59375 L725.56,1863.40625 C725.56,1863.01562 725.425835,1862.68359 725.1575,1862.41016 C724.889165,1862.13672 724.563335,1862 724.18,1862 Z" id="Fill-1"></path>
        </g>
    </g>
</svg>